<svg xmlns="http://www.w3.org/2000/svg" xmlns:xlink="http://www.w3.org/1999/xlink" contentStyleType="text/css" height="669px" preserveAspectRatio="none" style="width:585px;height:669px;background:#FFFFFF;" version="1.1" viewBox="0 0 585 669" width="585px" zoomAndPan="magnify"><defs/><g><path d="M19.5,7 L559.54,7 A12.5,12.5 0 0 1 572.04,19.5 L572.04,36.0679 L7,36.0679 L7,19.5 A12.5,12.5 0 0 1 19.5,7 " fill="#F1F1F1" style="stroke:#F1F1F1;stroke-width:1.0;"/><rect fill="none" height="656.2038" rx="12.5" ry="12.5" style="stroke:#181818;stroke-width:0.5;" width="565.04" x="7" y="7"/><line style="stroke:#181818;stroke-width:0.5;" x1="7" x2="572.04" y1="36.0679" y2="36.0679"/><text fill="#000000" font-family="sans-serif" font-size="14" lengthAdjust="spacing" textLength="106" x="236.52" y="26.9659">AdjustableLight</text><ellipse cx="238.04" cy="57.0679" fill="#222222" rx="10" ry="10" style="stroke:#222222;stroke-width:1.0;"/><g id="AdjustableLight.LightOff"><rect fill="#F1F1F1" height="58.1358" rx="12.5" ry="12.5" style="stroke:#181818;stroke-width:0.5;" width="109" x="183.54" y="142.0679"/><line style="stroke:#181818;stroke-width:0.5;" x1="183.54" x2="292.54" y1="171.1358" y2="171.1358"/><text fill="#000000" font-family="sans-serif" font-size="14" lengthAdjust="spacing" textLength="55" x="210.54" y="162.0339">LightOff</text><text fill="#000000" font-family="sans-serif" font-size="14" font-weight="bold" lengthAdjust="spacing" textLength="50" x="188.54" y="191.1018">Output</text><text fill="#000000" font-family="sans-serif" font-size="14" lengthAdjust="spacing" textLength="39" x="238.54" y="191.1018">: Dark</text></g><g id="AdjustableLight.LightOnDim"><rect fill="#F1F1F1" height="58.1358" rx="12.5" ry="12.5" style="stroke:#181818;stroke-width:0.5;" width="181" x="28.54" y="293.0679"/><line style="stroke:#181818;stroke-width:0.5;" x1="28.54" x2="209.54" y1="322.1358" y2="322.1358"/><text fill="#000000" font-family="sans-serif" font-size="14" lengthAdjust="spacing" textLength="81" x="78.54" y="313.0339">LightOnDim</text><text fill="#000000" font-family="sans-serif" font-size="14" font-weight="bold" lengthAdjust="spacing" textLength="50" x="33.54" y="342.1018">Output</text><text fill="#000000" font-family="sans-serif" font-size="14" lengthAdjust="spacing" textLength="111" x="83.54" y="342.1018">: Low brightness</text></g><g id="AdjustableLight.LightOnMedium"><rect fill="#F1F1F1" height="58.1358" rx="12.5" ry="12.5" style="stroke:#181818;stroke-width:0.5;" width="215" x="201.54" y="444.0679"/><line style="stroke:#181818;stroke-width:0.5;" x1="201.54" x2="416.54" y1="473.1358" y2="473.1358"/><text fill="#000000" font-family="sans-serif" font-size="14" lengthAdjust="spacing" textLength="110" x="254.04" y="464.0339">LightOnMedium</text><text fill="#000000" font-family="sans-serif" font-size="14" font-weight="bold" lengthAdjust="spacing" textLength="50" x="206.54" y="493.1018">Output</text><text fill="#000000" font-family="sans-serif" font-size="14" lengthAdjust="spacing" textLength="145" x="256.54" y="493.1018">: Medium  brightness</text></g><g id="AdjustableLight.LightOnBright"><rect fill="#F1F1F1" height="58.1358" rx="12.5" ry="12.5" style="stroke:#181818;stroke-width:0.5;" width="187" x="215.54" y="595.0679"/><line style="stroke:#181818;stroke-width:0.5;" x1="215.54" x2="402.54" y1="624.1358" y2="624.1358"/><text fill="#000000" font-family="sans-serif" font-size="14" lengthAdjust="spacing" textLength="96" x="261.04" y="615.0339">LightOnBright</text><text fill="#000000" font-family="sans-serif" font-size="14" font-weight="bold" lengthAdjust="spacing" textLength="50" x="220.54" y="644.1018">Output</text><text fill="#000000" font-family="sans-serif" font-size="14" lengthAdjust="spacing" textLength="117" x="270.54" y="644.1018">: High brightness</text></g><!--link *start*AdjustableLight to LightOff--><g id="link_*start*AdjustableLight_LightOff"><path d="M238.04,67.2379 C238.04,83.3279 238.04,111.2679 238.04,135.7679 " fill="none" id="*start*AdjustableLight-to-LightOff" style="stroke:#181818;stroke-width:1.0;"/><polygon fill="#181818" points="238.04,141.7679,242.04,132.7679,238.04,136.7679,234.04,132.7679,238.04,141.7679" style="stroke:#181818;stroke-width:1.0;"/></g><!--link LightOff to LightOnDim--><g id="link_LightOff_LightOnDim"><path d="M183.46,172.6279 C135.17,176.3879 67.23,190.3679 33.04,237.0679 C18,257.6179 31.7859,274.4088 55.6159,289.7588 " fill="none" id="LightOff-to-LightOnDim" style="stroke:#181818;stroke-width:1.0;"/><polygon fill="#181818" points="60.66,293.0079,55.2599,284.7715,56.4566,290.3003,50.9277,291.4969,60.66,293.0079" style="stroke:#181818;stroke-width:1.0;"/><text fill="#000000" font-family="sans-serif" font-size="13" font-weight="bold" lengthAdjust="spacing" textLength="37" x="34.04" y="251.9649">Event</text><text fill="#000000" font-family="sans-serif" font-size="13" lengthAdjust="spacing" textLength="74" x="71.04" y="251.9649">: On pressed</text></g><!--link LightOnDim to LightOff--><g id="link_LightOnDim_LightOff"><path d="M139.58,292.7079 C151.67,276.2479 167.42,255.2479 182.04,237.0679 C191.94,224.7679 199.3014,216.0343 209.1514,204.7143 " fill="none" id="LightOnDim-to-LightOff" style="stroke:#181818;stroke-width:1.0;"/><polygon fill="#181818" points="213.09,200.1879,204.1646,204.3517,209.8079,203.9599,210.1997,209.6031,213.09,200.1879" style="stroke:#181818;stroke-width:1.0;"/><text fill="#000000" font-family="sans-serif" font-size="13" font-weight="bold" lengthAdjust="spacing" textLength="37" x="183.04" y="251.9649">Event</text><text fill="#000000" font-family="sans-serif" font-size="13" lengthAdjust="spacing" textLength="74" x="220.04" y="251.9649">: Off pressed</text></g><!--link LightOnDim to LightOnMedium--><g id="link_LightOnDim_LightOnMedium"><path d="M135.6,351.3979 C146.98,369.0479 163.36,391.3279 182.04,407.0679 C199.28,421.5879 214.9429,431.3157 234.8929,441.2857 " fill="none" id="LightOnDim-to-LightOnMedium" style="stroke:#181818;stroke-width:1.0;"/><polygon fill="#181818" points="240.26,443.9679,233.9975,436.3665,235.7874,441.7327,230.4212,443.5227,240.26,443.9679" style="stroke:#181818;stroke-width:1.0;"/><text fill="#000000" font-family="sans-serif" font-size="13" font-weight="bold" lengthAdjust="spacing" textLength="37" x="183.04" y="402.9649">Event</text><text fill="#000000" font-family="sans-serif" font-size="13" lengthAdjust="spacing" textLength="74" x="220.04" y="402.9649">: On pressed</text></g><!--link LightOnMedium to LightOff--><g id="link_LightOnMedium_LightOff"><path d="M309.04,443.7979 C309.04,430.1379 309.04,413.4979 309.04,398.5679 C309.04,245.5679 309.04,245.5679 309.04,245.5679 C309.04,227.4679 302.278,216.0874 288.718,204.1774 " fill="none" id="LightOnMedium-to-LightOff" style="stroke:#181818;stroke-width:1.0;"/><polygon fill="#181818" points="284.21,200.2179,288.3324,209.1625,287.9667,203.5175,293.6117,203.1518,284.21,200.2179" style="stroke:#181818;stroke-width:1.0;"/><text fill="#000000" font-family="sans-serif" font-size="13" font-weight="bold" lengthAdjust="spacing" textLength="37" x="310.04" y="327.4649">Event</text><text fill="#000000" font-family="sans-serif" font-size="13" lengthAdjust="spacing" textLength="74" x="347.04" y="327.4649">: Off pressed</text></g><!--link LightOnMedium to LightOnBright--><g id="link_LightOnMedium_LightOnBright"><path d="M309.04,502.0979 C309.04,528.6479 309.04,562.3179 309.04,588.9179 " fill="none" id="LightOnMedium-to-LightOnBright" style="stroke:#181818;stroke-width:1.0;"/><polygon fill="#181818" points="309.04,594.9179,313.04,585.9179,309.04,589.9179,305.04,585.9179,309.04,594.9179" style="stroke:#181818;stroke-width:1.0;"/><text fill="#000000" font-family="sans-serif" font-size="13" font-weight="bold" lengthAdjust="spacing" textLength="37" x="310.04" y="553.9649">Event</text><text fill="#000000" font-family="sans-serif" font-size="13" lengthAdjust="spacing" textLength="74" x="347.04" y="553.9649">: On pressed</text></g><!--link LightOnBright to LightOff--><g id="link_LightOnBright_LightOff"><path d="M402.7,605.0379 C428.74,594.2579 450.04,577.0379 450.04,549.5679 C450.04,245.5679 450.04,245.5679 450.04,245.5679 C450.04,212.2579 361.3651,191.6637 298.5551,180.9837 " fill="none" id="LightOnBright-to-LightOff" style="stroke:#181818;stroke-width:1.0;"/><polygon fill="#181818" points="292.64,179.9779,300.8421,185.43,297.5692,180.8161,302.1832,177.5432,292.64,179.9779" style="stroke:#181818;stroke-width:1.0;"/><text fill="#000000" font-family="sans-serif" font-size="13" font-weight="bold" lengthAdjust="spacing" textLength="37" x="451.04" y="402.9649">Event</text><text fill="#000000" font-family="sans-serif" font-size="13" lengthAdjust="spacing" textLength="74" x="488.04" y="402.9649">: Off pressed</text></g><!--link LightOnBright to LightOnDim--><g id="link_LightOnBright_LightOnDim"><path d="M215.27,611.6879 C148.31,600.8379 70.04,581.3679 70.04,549.5679 C70.04,396.5679 70.04,396.5679 70.04,396.5679 C70.04,379.8479 75.162,368.7172 85.362,356.0772 " fill="none" id="LightOnBright-to-LightOnDim" style="stroke:#181818;stroke-width:1.0;"/><polygon fill="#181818" points="89.13,351.4079,80.3652,355.8999,85.99,355.299,86.5909,360.9239,89.13,351.4079" style="stroke:#181818;stroke-width:1.0;"/><text fill="#000000" font-family="sans-serif" font-size="13" font-weight="bold" lengthAdjust="spacing" textLength="37" x="71.04" y="478.4649">Event</text><text fill="#000000" font-family="sans-serif" font-size="13" lengthAdjust="spacing" textLength="74" x="108.04" y="478.4649">: On pressed</text></g><!--SRC=[bP0n2y8m48Ld-ojk3dGGd3e8IXK7fOEZEBJcQgFs6f9KKV6_6qBLnWhgThpxtZtkwRqWcQgq16rIWzEAp59S4Fg3e10S0Kjfpi1HRvIGHbGKE0v6V5VRAJlWN6mB0zSWwAtO6i8m78AJaZotscDiBoWM9KJ0sEI8P1YB826G2hL6_hGuoBlsPh72Dmyja8lwXwo6-pUkQwEnSdLyJMouVnExjf_AR6udjP6rO-9KxVtQ_FsyEa7ciiXUwdpimutuqT3gusMOMSsZRtS0]--></g></svg>