<svg xmlns="http://www.w3.org/2000/svg" xmlns:xlink="http://www.w3.org/1999/xlink" contentStyleType="text/css" height="356px" preserveAspectRatio="none" style="width:461px;height:356px;background:#FFFFFF;" version="1.1" viewBox="0 0 461 356" width="461px" zoomAndPan="magnify"><defs/><g><path d="M19.5,7 L435.44,7 A12.5,12.5 0 0 1 447.94,19.5 L447.94,36.0679 L7,36.0679 L7,19.5 A12.5,12.5 0 0 1 19.5,7 " fill="#F1F1F1" style="stroke:#F1F1F1;stroke-width:1.0;"/><rect fill="none" height="343.0679" rx="12.5" ry="12.5" style="stroke:#181818;stroke-width:0.5;" width="440.94" x="7" y="7"/><line style="stroke:#181818;stroke-width:0.5;" x1="7" x2="447.94" y1="36.0679" y2="36.0679"/><text fill="#000000" font-family="sans-serif" font-size="14" lengthAdjust="spacing" textLength="93" x="180.97" y="26.9659">AndLogicGate</text><ellipse cx="260.94" cy="57.0679" fill="#222222" rx="10" ry="10" style="stroke:#222222;stroke-width:1.0;"/><rect fill="#F1F1F1" height="40" rx="12.5" ry="12.5" style="stroke:#181818;stroke-width:0.5;" width="50" x="235.94" y="145.5679"/><text fill="#000000" font-family="sans-serif" font-size="14" lengthAdjust="spacing" textLength="32" x="244.94" y="170.9999">Start</text><rect fill="#F1F1F1" height="40" rx="12.5" ry="12.5" style="stroke:#181818;stroke-width:0.5;" width="71" x="225.44" y="300.0679"/><text fill="#000000" font-family="sans-serif" font-size="14" lengthAdjust="spacing" textLength="61" x="230.44" y="325.4999">ANDGate</text><!--link *start*AndLogicGate to Start--><g id="link_*start*AndLogicGate_Start"><path d="M260.94,67.1479 C260.94,84.3479 260.94,116.0379 260.94,139.1679 " fill="none" id="*start*AndLogicGate-to-Start" style="stroke:#181818;stroke-width:1.0;"/><polygon fill="#181818" points="260.94,145.1679,264.94,136.1679,260.94,140.1679,256.94,136.1679,260.94,145.1679" style="stroke:#181818;stroke-width:1.0;"/></g><!--link Start to Start--><g id="link_Start_Start"><path d="M286.12,157.7279 C295.85,157.3779 303.94,159.9879 303.94,165.5679 C303.94,171.1479 301.8461,173.9736 292.1161,173.6236 " fill="none" id="Start-to-Start" style="stroke:#181818;stroke-width:1.0;"/><polygon fill="#181818" points="286.12,173.4079,294.9704,177.7289,291.1168,173.5877,295.258,169.734,286.12,173.4079" style="stroke:#181818;stroke-width:1.0;"/><text fill="#000000" font-family="sans-serif" font-size="13" font-weight="bold" lengthAdjust="spacing" textLength="37" x="316.94" y="161.9649">Event</text><text fill="#000000" font-family="sans-serif" font-size="13" lengthAdjust="spacing" textLength="33" x="353.94" y="161.9649">: Zero</text><text fill="#000000" font-family="sans-serif" font-size="13" font-weight="bold" lengthAdjust="spacing" textLength="48" x="309.94" y="179.6709">Output</text><text fill="#000000" font-family="sans-serif" font-size="13" lengthAdjust="spacing" textLength="36" x="357.94" y="179.6709">: False</text></g><!--link Start to ANDGate--><g id="link_Start_ANDGate"><path d="M235.59,169.0879 C172.72,176.3379 18,200.8379 64.94,263.0679 C84.23,288.6379 168.2923,305.1195 219.3723,313.1195 " fill="none" id="Start-to-ANDGate" style="stroke:#181818;stroke-width:1.0;"/><polygon fill="#181818" points="225.3,314.0479,217.0273,308.7035,220.3602,313.2743,215.7895,316.6072,225.3,314.0479" style="stroke:#181818;stroke-width:1.0;"/><text fill="#000000" font-family="sans-serif" font-size="13" font-weight="bold" lengthAdjust="spacing" textLength="37" x="117.94" y="240.9649">Event</text><text fill="#000000" font-family="sans-serif" font-size="13" lengthAdjust="spacing" textLength="31" x="154.94" y="240.9649">: One</text><text fill="#000000" font-family="sans-serif" font-size="13" font-weight="bold" lengthAdjust="spacing" textLength="48" x="65.94" y="258.6709">Output</text><text fill="#000000" font-family="sans-serif" font-size="13" lengthAdjust="spacing" textLength="124" x="113.94" y="258.6709">: Waiting for boolean</text></g><!--link ANDGate to Start--><g id="link_ANDGate_Start"><path d="M260.94,299.8179 C260.94,270.4579 260.94,220.7979 260.94,191.5779 " fill="none" id="ANDGate-to-Start" style="stroke:#181818;stroke-width:1.0;"/><polygon fill="#181818" points="260.94,185.5779,256.94,194.5779,260.94,190.5779,264.94,194.5779,260.94,185.5779" style="stroke:#181818;stroke-width:1.0;"/><text fill="#000000" font-family="sans-serif" font-size="13" font-weight="bold" lengthAdjust="spacing" textLength="37" x="268.44" y="240.9649">Event</text><text fill="#000000" font-family="sans-serif" font-size="13" lengthAdjust="spacing" textLength="31" x="305.44" y="240.9649">: One</text><text fill="#000000" font-family="sans-serif" font-size="13" font-weight="bold" lengthAdjust="spacing" textLength="48" x="261.94" y="258.6709">Output</text><text fill="#000000" font-family="sans-serif" font-size="13" lengthAdjust="spacing" textLength="33" x="309.94" y="258.6709">: True</text></g><!--link ANDGate to Start--><g id="link_ANDGate_Start"><path d="M296.63,305.9979 C315.52,297.0279 337.02,283.0979 347.94,263.0679 C355.82,248.6279 355.61,240.6079 347.94,226.0679 C335.05,201.6279 312.5786,187.7643 291.8186,178.4943 " fill="none" id="ANDGate-to-Start-1" style="stroke:#181818;stroke-width:1.0;"/><polygon fill="#181818" points="286.34,176.0479,292.927,183.3699,290.9055,178.0866,296.1888,176.0651,286.34,176.0479" style="stroke:#181818;stroke-width:1.0;"/><text fill="#000000" font-family="sans-serif" font-size="13" font-weight="bold" lengthAdjust="spacing" textLength="37" x="360.94" y="240.9649">Event</text><text fill="#000000" font-family="sans-serif" font-size="13" lengthAdjust="spacing" textLength="33" x="397.94" y="240.9649">: Zero</text><text fill="#000000" font-family="sans-serif" font-size="13" font-weight="bold" lengthAdjust="spacing" textLength="48" x="353.94" y="258.6709">Output</text><text fill="#000000" font-family="sans-serif" font-size="13" lengthAdjust="spacing" textLength="36" x="401.94" y="258.6709">: False</text></g><!--SRC=[ZOuz2y8m48RdvbVS7EWWE7KG2beNiKC5mOyXjcSDjfUGN0KL_xiQ42oYE1ttSCzxhpzgiigf5ZmhnimG5_g2C1YAWwuGiBLyXWfzwRHbRKY4EqYfcfbQbzFdSXKYMiijn74yWeALumS8ymr10b9EJaWiPG8hT6P3KkOTsowGJ3KUewXlflDn-D1pSyA-kbIQDTMmDmvsnZIeA0Izx6ybFe8MhiE_p1_rRtS0]--></g></svg>