<svg xmlns="http://www.w3.org/2000/svg" xmlns:xlink="http://www.w3.org/1999/xlink" contentStyleType="text/css" height="518px" preserveAspectRatio="none" style="width:603px;height:518px;background:#FFFFFF;" version="1.1" viewBox="0 0 603 518" width="603px" zoomAndPan="magnify"><defs/><g><path d="M19.5,7 L577,7 A12.5,12.5 0 0 1 589.5,19.5 L589.5,36.0679 L7,36.0679 L7,19.5 A12.5,12.5 0 0 1 19.5,7 " fill="#F1F1F1" style="stroke:#F1F1F1;stroke-width:1.0;"/><rect fill="none" height="505.2038" rx="12.5" ry="12.5" style="stroke:#181818;stroke-width:0.5;" width="582.5" x="7" y="7"/><line style="stroke:#181818;stroke-width:0.5;" x1="7" x2="589.5" y1="36.0679" y2="36.0679"/><text fill="#000000" font-family="sans-serif" font-size="14" lengthAdjust="spacing" textLength="86" x="255.25" y="26.9659">BinaryParser</text><ellipse cx="263.5" cy="57.0679" fill="#222222" rx="10" ry="10" style="stroke:#222222;stroke-width:1.0;"/><g id="BinaryParser.Start"><rect fill="#F1F1F1" height="58.1358" rx="12.5" ry="12.5" style="stroke:#181818;stroke-width:0.5;" width="243" x="142" y="142.0679"/><line style="stroke:#181818;stroke-width:0.5;" x1="142" x2="385" y1="171.1358" y2="171.1358"/><text fill="#000000" font-family="sans-serif" font-size="14" lengthAdjust="spacing" textLength="32" x="247.5" y="162.0339">Start</text><text fill="#000000" font-family="sans-serif" font-size="14" font-weight="bold" lengthAdjust="spacing" textLength="50" x="147" y="191.1018">Output</text><text fill="#000000" font-family="sans-serif" font-size="14" lengthAdjust="spacing" textLength="173" x="197" y="191.1018">: Input value is not binary</text></g><g id="BinaryParser.Binary"><rect fill="#F1F1F1" height="58.1358" rx="12.5" ry="12.5" style="stroke:#181818;stroke-width:0.5;" width="205" x="19" y="293.0679"/><line style="stroke:#181818;stroke-width:0.5;" x1="19" x2="224" y1="322.1358" y2="322.1358"/><text fill="#000000" font-family="sans-serif" font-size="14" lengthAdjust="spacing" textLength="43" x="100" y="313.0339">Binary</text><text fill="#000000" font-family="sans-serif" font-size="14" font-weight="bold" lengthAdjust="spacing" textLength="50" x="24" y="342.1018">Output</text><text fill="#000000" font-family="sans-serif" font-size="14" lengthAdjust="spacing" textLength="135" x="74" y="342.1018">: The value is binary</text></g><g id="BinaryParser.Pattern"><rect fill="#F1F1F1" height="58.1358" rx="12.5" ry="12.5" style="stroke:#181818;stroke-width:0.5;" width="210" x="155.5" y="444.0679"/><line style="stroke:#181818;stroke-width:0.5;" x1="155.5" x2="365.5" y1="473.1358" y2="473.1358"/><text fill="#000000" font-family="sans-serif" font-size="14" lengthAdjust="spacing" textLength="49" x="236" y="464.0339">Pattern</text><text fill="#000000" font-family="sans-serif" font-size="14" font-weight="bold" lengthAdjust="spacing" textLength="50" x="160.5" y="493.1018">Output</text><text fill="#000000" font-family="sans-serif" font-size="14" lengthAdjust="spacing" textLength="140" x="210.5" y="493.1018">: Recognised pattern</text></g><!--link *start*BinaryParser to Start--><g id="link_*start*BinaryParser_Start"><path d="M263.5,67.2379 C263.5,83.3279 263.5,111.2679 263.5,135.7679 " fill="none" id="*start*BinaryParser-to-Start" style="stroke:#181818;stroke-width:1.0;"/><polygon fill="#181818" points="263.5,141.7679,267.5,132.7679,263.5,136.7679,259.5,132.7679,263.5,141.7679" style="stroke:#181818;stroke-width:1.0;"/></g><!--link Start to Binary--><g id="link_Start_Binary"><path d="M236.79,200.0979 C211.48,226.6479 177.8194,261.9744 152.4694,288.5744 " fill="none" id="Start-to-Binary" style="stroke:#181818;stroke-width:1.0;"/><polygon fill="#181818" points="148.33,292.9179,157.4347,289.1623,151.7795,289.2984,151.6434,283.6431,148.33,292.9179" style="stroke:#181818;stroke-width:1.0;"/><text fill="#000000" font-family="sans-serif" font-size="13" font-weight="bold" lengthAdjust="spacing" textLength="37" x="202.5" y="251.9649">Event</text><text fill="#000000" font-family="sans-serif" font-size="13" lengthAdjust="spacing" textLength="77" x="239.5" y="251.9649">: Zero or One</text></g><!--link Binary to Binary--><g id="link_Binary_Binary"><path d="M224.34,314.9179 C235.1,316.3179 242,318.6979 242,322.0679 C242,325.4379 241.0498,327.0438 230.2898,328.4438 " fill="none" id="Binary-to-Binary" style="stroke:#181818;stroke-width:1.0;"/><polygon fill="#181818" points="224.34,329.2179,233.7809,332.0233,229.2982,328.5728,232.7487,324.0901,224.34,329.2179" style="stroke:#181818;stroke-width:1.0;"/><text fill="#000000" font-family="sans-serif" font-size="13" font-weight="bold" lengthAdjust="spacing" textLength="37" x="248" y="327.4649">Event</text><text fill="#000000" font-family="sans-serif" font-size="13" lengthAdjust="spacing" textLength="77" x="285" y="327.4649">: Zero or One</text></g><!--link Binary to Pattern--><g id="link_Binary_Pattern"><path d="M81.97,351.2079 C63.87,367.5979 49.12,388.5979 62.5,407.0679 C84.15,436.9579 114.1624,451.8799 149.4324,460.7799 " fill="none" id="Binary-to-Pattern" style="stroke:#181818;stroke-width:1.0;"/><polygon fill="#181818" points="155.25,462.2479,147.5022,456.1675,150.402,461.0246,145.5449,463.9243,155.25,462.2479" style="stroke:#181818;stroke-width:1.0;"/><text fill="#000000" font-family="sans-serif" font-size="13" font-weight="bold" lengthAdjust="spacing" textLength="37" x="63.5" y="402.9649">Event</text><text fill="#000000" font-family="sans-serif" font-size="13" lengthAdjust="spacing" textLength="137" x="100.5" y="402.9649">: Any but Zero and One</text></g><!--link Pattern to Binary--><g id="link_Pattern_Binary"><path d="M258.71,443.8879 C256.33,426.2979 250.88,404.0279 238.5,388.0679 C226.68,372.8279 215.4445,363.5883 198.6045,354.0783 " fill="none" id="Pattern-to-Binary" style="stroke:#181818;stroke-width:1.0;"/><polygon fill="#181818" points="193.38,351.1279,199.2498,359.0365,197.7337,353.5866,203.1836,352.0705,193.38,351.1279" style="stroke:#181818;stroke-width:1.0;"/><text fill="#000000" font-family="sans-serif" font-size="13" font-weight="bold" lengthAdjust="spacing" textLength="37" x="250.5" y="402.9649">Event</text><text fill="#000000" font-family="sans-serif" font-size="13" lengthAdjust="spacing" textLength="77" x="287.5" y="402.9649">: Zero or One</text></g><!--link Pattern to Start--><g id="link_Pattern_Start"><path d="M365.53,450.3779 C387.68,439.4879 404.5,423.1279 404.5,398.5679 C404.5,245.5679 404.5,245.5679 404.5,245.5679 C404.5,225.4179 398.0654,214.0406 381.6754,203.4206 " fill="none" id="Pattern-to-Start" style="stroke:#181818;stroke-width:1.0;"/><polygon fill="#181818" points="376.64,200.1579,382.0179,208.4089,380.8361,202.8768,386.3682,201.695,376.64,200.1579" style="stroke:#181818;stroke-width:1.0;"/><text fill="#000000" font-family="sans-serif" font-size="13" font-weight="bold" lengthAdjust="spacing" textLength="37" x="405.5" y="327.4649">Event</text><text fill="#000000" font-family="sans-serif" font-size="13" lengthAdjust="spacing" textLength="137" x="442.5" y="327.4649">: Any but Zero and One</text></g><!--SRC=[dSynQm9140NWElihNhrmXP3A8X118PMYLWafHc-8ItHscPqJBY7_tUDMSxbEKkqoV8_7ovz14YcTa8sC5r5i4xuOaqTt23M3JybQr9pt6fA5AAvtc0KXRLUacHNVpZsy-NTKLVM4ZP5QT-ZVSYeOKtW_FxEOzrEyiaP4nLAumrVn3xqYCrOPysTfiMkin4ZgQ-vcxwmPyJBddfP1BXjBJKzVfFlWJCU64J8a6dPz_x1c7DWUUE2_zE_OmQvv7pyaPAwH2d3kvm80]--></g></svg>