<svg xmlns="http://www.w3.org/2000/svg" xmlns:xlink="http://www.w3.org/1999/xlink" contentStyleType="text/css" height="356px" preserveAspectRatio="none" style="width:438px;height:356px;background:#FFFFFF;" version="1.1" viewBox="0 0 438 356" width="438px" zoomAndPan="magnify"><defs/><g><path d="M19.5,7 L412.71,7 A12.5,12.5 0 0 1 425.21,19.5 L425.21,36.0679 L7,36.0679 L7,19.5 A12.5,12.5 0 0 1 19.5,7 " fill="#F1F1F1" style="stroke:#F1F1F1;stroke-width:1.0;"/><rect fill="none" height="343.0679" rx="12.5" ry="12.5" style="stroke:#181818;stroke-width:0.5;" width="418.21" x="7" y="7"/><line style="stroke:#181818;stroke-width:0.5;" x1="7" x2="425.21" y1="36.0679" y2="36.0679"/><text fill="#000000" font-family="sans-serif" font-size="14" lengthAdjust="spacing" textLength="83" x="174.605" y="26.9659">OrLogicGate</text><ellipse cx="238.21" cy="57.0679" fill="#222222" rx="10" ry="10" style="stroke:#222222;stroke-width:1.0;"/><rect fill="#F1F1F1" height="40" rx="12.5" ry="12.5" style="stroke:#181818;stroke-width:0.5;" width="50" x="213.21" y="145.5679"/><text fill="#000000" font-family="sans-serif" font-size="14" lengthAdjust="spacing" textLength="32" x="222.21" y="170.9999">Start</text><rect fill="#F1F1F1" height="40" rx="12.5" ry="12.5" style="stroke:#181818;stroke-width:0.5;" width="60" x="208.21" y="300.0679"/><text fill="#000000" font-family="sans-serif" font-size="14" lengthAdjust="spacing" textLength="50" x="213.21" y="325.4999">ORgate</text><!--link *start*OrLogicGate to Start--><g id="link_*start*OrLogicGate_Start"><path d="M238.21,67.1479 C238.21,84.3479 238.21,116.0379 238.21,139.1679 " fill="none" id="*start*OrLogicGate-to-Start" style="stroke:#181818;stroke-width:1.0;"/><polygon fill="#181818" points="238.21,145.1679,242.21,136.1679,238.21,140.1679,234.21,136.1679,238.21,145.1679" style="stroke:#181818;stroke-width:1.0;"/></g><!--link ORgate to Start--><g id="link_ORgate_Start"><path d="M238.21,299.8179 C238.21,270.4579 238.21,220.7979 238.21,191.5779 " fill="none" id="ORgate-to-Start" style="stroke:#181818;stroke-width:1.0;"/><polygon fill="#181818" points="238.21,185.5779,234.21,194.5779,238.21,190.5779,242.21,194.5779,238.21,185.5779" style="stroke:#181818;stroke-width:1.0;"/><text fill="#000000" font-family="sans-serif" font-size="13" font-weight="bold" lengthAdjust="spacing" textLength="37" x="246.21" y="240.9649">Event</text><text fill="#000000" font-family="sans-serif" font-size="13" lengthAdjust="spacing" textLength="33" x="283.21" y="240.9649">: Zero</text><text fill="#000000" font-family="sans-serif" font-size="13" font-weight="bold" lengthAdjust="spacing" textLength="48" x="239.21" y="258.6709">Output</text><text fill="#000000" font-family="sans-serif" font-size="13" lengthAdjust="spacing" textLength="36" x="287.21" y="258.6709">: False</text></g><!--link Start to Start--><g id="link_Start_Start"><path d="M263.39,157.7279 C273.12,157.3779 281.21,159.9879 281.21,165.5679 C281.21,171.1479 279.1161,173.9736 269.3861,173.6236 " fill="none" id="Start-to-Start" style="stroke:#181818;stroke-width:1.0;"/><polygon fill="#181818" points="263.39,173.4079,272.2404,177.7289,268.3868,173.5877,272.528,169.734,263.39,173.4079" style="stroke:#181818;stroke-width:1.0;"/><text fill="#000000" font-family="sans-serif" font-size="13" font-weight="bold" lengthAdjust="spacing" textLength="37" x="293.71" y="161.9649">Event</text><text fill="#000000" font-family="sans-serif" font-size="13" lengthAdjust="spacing" textLength="31" x="330.71" y="161.9649">: One</text><text fill="#000000" font-family="sans-serif" font-size="13" font-weight="bold" lengthAdjust="spacing" textLength="48" x="287.21" y="179.6709">Output</text><text fill="#000000" font-family="sans-serif" font-size="13" lengthAdjust="spacing" textLength="33" x="335.21" y="179.6709">: True</text></g><!--link Start to ORgate--><g id="link_Start_ORgate"><path d="M213.05,169.8679 C154.66,178.5679 18,205.5379 60.21,263.0679 C94.32,309.5579 161.0622,318.3161 202.2122,319.4261 " fill="none" id="Start-to-ORgate" style="stroke:#181818;stroke-width:1.0;"/><polygon fill="#181818" points="208.21,319.5879,199.3211,315.3467,203.2118,319.4531,199.1054,323.3438,208.21,319.5879" style="stroke:#181818;stroke-width:1.0;"/><text fill="#000000" font-family="sans-serif" font-size="13" font-weight="bold" lengthAdjust="spacing" textLength="37" x="112.21" y="240.9649">Event</text><text fill="#000000" font-family="sans-serif" font-size="13" lengthAdjust="spacing" textLength="33" x="149.21" y="240.9649">: Zero</text><text fill="#000000" font-family="sans-serif" font-size="13" font-weight="bold" lengthAdjust="spacing" textLength="48" x="61.21" y="258.6709">Output</text><text fill="#000000" font-family="sans-serif" font-size="13" lengthAdjust="spacing" textLength="124" x="109.21" y="258.6709">: Waiting for boolean</text></g><!--link ORgate to Start--><g id="link_ORgate_Start"><path d="M268.31,309.2379 C289.22,300.6379 315.52,285.9079 328.21,263.0679 C336.2,248.6879 336,240.5479 328.21,226.0679 C314.64,200.8279 290.6712,186.8329 269.1412,177.7829 " fill="none" id="ORgate-to-Start-1" style="stroke:#181818;stroke-width:1.0;"/><polygon fill="#181818" points="263.61,175.4579,270.3568,182.6329,268.2193,177.3954,273.4568,175.258,263.61,175.4579" style="stroke:#181818;stroke-width:1.0;"/><text fill="#000000" font-family="sans-serif" font-size="13" font-weight="bold" lengthAdjust="spacing" textLength="37" x="340.71" y="240.9649">Event</text><text fill="#000000" font-family="sans-serif" font-size="13" lengthAdjust="spacing" textLength="31" x="377.71" y="240.9649">: One</text><text fill="#000000" font-family="sans-serif" font-size="13" font-weight="bold" lengthAdjust="spacing" textLength="48" x="334.21" y="258.6709">Output</text><text fill="#000000" font-family="sans-serif" font-size="13" lengthAdjust="spacing" textLength="33" x="382.21" y="258.6709">: True</text></g><!--SRC=[XOwz2i9048Jht5DiVP12i4fXPso40oC8_XHdiiR5vEwusmWglhj954Gaf5jcvvkPS27ZjDSr1DQCgJMSqHrXCXLdAX2mTdo30aFkoJ5P8teVAB-q9UMBxdu84Uta0U8uda76sdChg5NP_RuQ923b_8g6fKnWYzxkZPIgOTVqIgghW57Kec_x4AaC_e9ht_nnd_QHoeqc9bF2oNeuMbkXDdtGoFR11SyN]--></g></svg>