<svg xmlns="http://www.w3.org/2000/svg" xmlns:xlink="http://www.w3.org/1999/xlink" contentStyleType="text/css" height="349px" preserveAspectRatio="none" style="width:307px;height:349px;background:#FFFFFF;" version="1.1" viewBox="0 0 307 349" width="307px" zoomAndPan="magnify"><defs/><g><path d="M19.5,7 L281.1,7 A12.5,12.5 0 0 1 293.6,19.5 L293.6,36.0679 L7,36.0679 L7,19.5 A12.5,12.5 0 0 1 19.5,7 " fill="#F1F1F1" style="stroke:#F1F1F1;stroke-width:1.0;"/><rect fill="none" height="336.0679" rx="12.5" ry="12.5" style="stroke:#181818;stroke-width:0.5;" width="286.6" x="7" y="7"/><line style="stroke:#181818;stroke-width:0.5;" x1="7" x2="293.6" y1="36.0679" y2="36.0679"/><text fill="#000000" font-family="sans-serif" font-size="14" lengthAdjust="spacing" textLength="78" x="111.3" y="26.9659">LightSwitch</text><ellipse cx="105.6" cy="57.0679" fill="#222222" rx="10" ry="10" style="stroke:#222222;stroke-width:1.0;"/><rect fill="#F1F1F1" height="40" rx="12.5" ry="12.5" style="stroke:#181818;stroke-width:0.5;" width="65" x="73.1" y="142.0679"/><text fill="#000000" font-family="sans-serif" font-size="14" lengthAdjust="spacing" textLength="55" x="78.1" y="167.4999">LightOff</text><rect fill="#F1F1F1" height="40" rx="12.5" ry="12.5" style="stroke:#181818;stroke-width:0.5;" width="64" x="73.6" y="293.0679"/><text fill="#000000" font-family="sans-serif" font-size="14" lengthAdjust="spacing" textLength="54" x="78.6" y="318.4999">LightOn</text><!--link *start*LightSwitch to LightOff--><g id="link_*start*LightSwitch_LightOff"><path d="M105.6,67.2079 C105.6,83.8479 105.6,113.4279 105.6,135.6779 " fill="none" id="*start*LightSwitch-to-LightOff" style="stroke:#181818;stroke-width:1.0;"/><polygon fill="#181818" points="105.6,141.6779,109.6,132.6779,105.6,136.6779,101.6,132.6779,105.6,141.6779" style="stroke:#181818;stroke-width:1.0;"/></g><!--link LightOn to LightOff--><g id="link_LightOn_LightOff"><path d="M128.54,292.9779 C138.59,283.1279 149.28,270.2179 154.6,256.0679 C160.38,240.6779 160.38,234.4579 154.6,219.0679 C149.28,204.9179 142.8751,196.2077 132.8251,186.3577 " fill="none" id="LightOn-to-LightOff" style="stroke:#181818;stroke-width:1.0;"/><polygon fill="#181818" points="128.54,182.1579,132.1677,191.3143,132.1109,185.6577,137.7675,185.6009,128.54,182.1579" style="stroke:#181818;stroke-width:1.0;"/><text fill="#000000" font-family="sans-serif" font-size="13" font-weight="bold" lengthAdjust="spacing" textLength="37" x="160.6" y="233.9649">Event</text><text fill="#000000" font-family="sans-serif" font-size="13" lengthAdjust="spacing" textLength="86" x="197.6" y="233.9649">: Off is pressed</text><text fill="#000000" font-family="sans-serif" font-size="13" font-weight="bold" lengthAdjust="spacing" textLength="48" x="181.1" y="251.6709">Output</text><text fill="#000000" font-family="sans-serif" font-size="13" lengthAdjust="spacing" textLength="34" x="229.1" y="251.6709">: Dark</text></g><!--link LightOff to LightOn--><g id="link_LightOff_LightOn"><path d="M72.7,176.8479 C55.31,186.0379 35.54,199.9679 25.6,219.0679 C18,233.6579 18,241.4779 25.6,256.0679 C35.7,275.4679 50.6108,286.7619 68.2008,295.9419 " fill="none" id="LightOff-to-LightOn" style="stroke:#181818;stroke-width:1.0;"/><polygon fill="#181818" points="73.52,298.7179,67.3919,291.0078,69.0873,296.4046,63.6905,298.1,73.52,298.7179" style="stroke:#181818;stroke-width:1.0;"/><text fill="#000000" font-family="sans-serif" font-size="13" font-weight="bold" lengthAdjust="spacing" textLength="37" x="26.6" y="233.9649">Event</text><text fill="#000000" font-family="sans-serif" font-size="13" lengthAdjust="spacing" textLength="86" x="63.6" y="233.9649">: On is pressed</text><text fill="#000000" font-family="sans-serif" font-size="13" font-weight="bold" lengthAdjust="spacing" textLength="48" x="45.6" y="251.6709">Output</text><text fill="#000000" font-family="sans-serif" font-size="13" lengthAdjust="spacing" textLength="37" x="93.6" y="251.6709">: Light</text></g><!--SRC=[TOox2i9044Nhx5TCFP12i4fXfLP2YfJHOibEp10oMNOdYeh_RXuWAjXTpZsSsB9u6sm7KQtIlXSj-4wmMfk67G5rNc_WA5Q1lN8lPlRWmET6YojhrS33cAJ44wHfkbcElAv7japvvf01ukv2eeWPJ80Z-40naZiAOZwe7-PlQqER9E_EQ7w4vASZVpEpFtMUBm00]--></g></svg>