<svg xmlns="http://www.w3.org/2000/svg" xmlns:xlink="http://www.w3.org/1999/xlink" contentStyleType="text/css" height="367px" preserveAspectRatio="none" style="width:211px;height:367px;background:#FFFFFF;" version="1.1" viewBox="0 0 211 367" width="211px" zoomAndPan="magnify"><defs/><g><path d="M19.5,7 L185,7 A12.5,12.5 0 0 1 197.5,19.5 L197.5,36.0679 L7,36.0679 L7,19.5 A12.5,12.5 0 0 1 19.5,7 " fill="#F1F1F1" style="stroke:#F1F1F1;stroke-width:1.0;"/><rect fill="none" height="354.2038" rx="12.5" ry="12.5" style="stroke:#181818;stroke-width:0.5;" width="190.5" x="7" y="7"/><line style="stroke:#181818;stroke-width:0.5;" x1="7" x2="197.5" y1="36.0679" y2="36.0679"/><text fill="#000000" font-family="sans-serif" font-size="14" lengthAdjust="spacing" textLength="60" x="72.25" y="26.9659">Turnstile</text><ellipse cx="80.5" cy="57.0679" fill="#222222" rx="10" ry="10" style="stroke:#222222;stroke-width:1.0;"/><g id="Turnstile.Locked"><rect fill="#F1F1F1" height="58.1358" rx="12.5" ry="12.5" style="stroke:#181818;stroke-width:0.5;" width="107" x="27" y="142.0679"/><line style="stroke:#181818;stroke-width:0.5;" x1="27" x2="134" y1="171.1358" y2="171.1358"/><text fill="#000000" font-family="sans-serif" font-size="14" lengthAdjust="spacing" textLength="46" x="57.5" y="162.0339">Locked</text><text fill="#000000" font-family="sans-serif" font-size="14" font-weight="bold" lengthAdjust="spacing" textLength="50" x="32" y="191.1018">Output</text><text fill="#000000" font-family="sans-serif" font-size="14" lengthAdjust="spacing" textLength="37" x="82" y="191.1018">: Lock</text></g><g id="Turnstile.Unlocked"><rect fill="#F1F1F1" height="58.1358" rx="12.5" ry="12.5" style="stroke:#181818;stroke-width:0.5;" width="123" x="19" y="293.0679"/><line style="stroke:#181818;stroke-width:0.5;" x1="19" x2="142" y1="322.1358" y2="322.1358"/><text fill="#000000" font-family="sans-serif" font-size="14" lengthAdjust="spacing" textLength="62" x="49.5" y="313.0339">Unlocked</text><text fill="#000000" font-family="sans-serif" font-size="14" font-weight="bold" lengthAdjust="spacing" textLength="50" x="24" y="342.1018">Output</text><text fill="#000000" font-family="sans-serif" font-size="14" lengthAdjust="spacing" textLength="53" x="74" y="342.1018">: Unlock</text></g><!--link *start*Turnstile to Locked--><g id="link_*start*Turnstile_Locked"><path d="M80.5,67.2379 C80.5,83.3279 80.5,111.2679 80.5,135.7679 " fill="none" id="*start*Turnstile-to-Locked" style="stroke:#181818;stroke-width:1.0;"/><polygon fill="#181818" points="80.5,141.7679,84.5,132.7679,80.5,136.7679,76.5,132.7679,80.5,141.7679" style="stroke:#181818;stroke-width:1.0;"/></g><!--link Locked to Unlocked--><g id="link_Locked_Unlocked"><path d="M58.49,200.2179 C51.28,211.1079 44.18,224.0679 40.5,237.0679 C35,256.4979 40.9788,272.0558 52.0488,287.9358 " fill="none" id="Locked-to-Unlocked" style="stroke:#181818;stroke-width:1.0;"/><polygon fill="#181818" points="55.48,292.8579,53.6146,283.1873,52.6207,288.7562,47.0518,287.7623,55.48,292.8579" style="stroke:#181818;stroke-width:1.0;"/><text fill="#000000" font-family="sans-serif" font-size="13" font-weight="bold" lengthAdjust="spacing" textLength="37" x="41.5" y="251.9649">Event</text><text fill="#000000" font-family="sans-serif" font-size="13" lengthAdjust="spacing" textLength="33" x="78.5" y="251.9649">: Coin</text></g><!--link Unlocked to Locked--><g id="link_Unlocked_Locked"><path d="M97.81,293.0079 C103.7,281.9279 109.53,268.8079 112.5,256.0679 C116.96,236.9179 112.2074,221.5053 103.2474,205.4753 " fill="none" id="Unlocked-to-Locked" style="stroke:#181818;stroke-width:1.0;"/><polygon fill="#181818" points="100.32,200.2379,101.2196,210.0456,102.7595,204.6024,108.2027,206.1424,100.32,200.2379" style="stroke:#181818;stroke-width:1.0;"/><text fill="#000000" font-family="sans-serif" font-size="13" font-weight="bold" lengthAdjust="spacing" textLength="37" x="114.5" y="251.9649">Event</text><text fill="#000000" font-family="sans-serif" font-size="13" lengthAdjust="spacing" textLength="36" x="151.5" y="251.9649">: Push</text></g><!--SRC=[LOmn2y8m48Ldyojk3cGGd3guY4w2GdKIXz0Uz6Xx2Sb5KF6_spQWxNRl-zwzs19x6smFKQpWmR6Kz49ORrH3DGBsNfvGOwm2UI77Qkh19GMEGXt2MwdLJT_16BE5ewjQh0UIZmoltELKWDRx1x9eNS3E4G_5dvpzBuld59l_ugXEINoQt0Zd8qkRiLAVBm00]--></g></svg>